HIERARCHY
ROOT Hips
{
	OFFSET 0.000000 97.167313 0.000000
	CHANNELS 6 Xposition Yposition Zposition Xrotation Yrotation Zrotation
	JOINT Spine
	{
		OFFSET 0.000000 13.784798 0.064400
		CHANNELS 3 Xrotation Yrotation Zrotation
		JOINT Spine1
		{
			OFFSET 0.000000 12.037903 0.404700
			CHANNELS 3 Xrotation Yrotation Zrotation
			JOINT Spine2
			{
				OFFSET 0.000000 17.795601 0.420200
				CHANNELS 3 Xrotation Yrotation Zrotation
				JOINT Neck
				{
					OFFSET 0.000000 39.131302 11.954600
					CHANNELS 3 Xrotation Yrotation Zrotation
					JOINT Head
					{
						OFFSET 0.000000 14.456192 15.627699
						CHANNELS 3 Xrotation Yrotation Zrotation
						JOINT HeadTop_End
						{
							OFFSET 0.000000 15.703506 7.603401
							CHANNELS 3 Xrotation Yrotation Zrotation
							End Site
							{
								OFFSET 0.000000 17.447403 0.000000
							}
						}
					}
				}
				JOINT LeftShoulder
				{
					OFFSET 17.399500 24.608795 1.168800
					CHANNELS 3 Xrotation Yrotation Zrotation
					JOINT LeftArm
					{
						OFFSET 18.980635 5.765305 1.818600
						CHANNELS 3 Xrotation Yrotation Zrotation
						JOINT LeftForeArm
						{
							OFFSET 49.290169 0.000000 0.000000
							CHANNELS 3 Xrotation Yrotation Zrotation
							JOINT LeftHand
							{
								OFFSET 31.562012 0.000000 0.000000
								CHANNELS 3 Xrotation Yrotation Zrotation
								JOINT LeftHandThumb1
								{
									OFFSET 6.133995 -4.388519 7.076070
									CHANNELS 3 Xrotation Yrotation Zrotation
									JOINT LeftHandThumb2
									{
										OFFSET 6.037666 -3.485840 3.485847
										CHANNELS 3 Xrotation Yrotation Zrotation
										JOINT LeftHandThumb3
										{
											OFFSET 6.496506 -3.750763 3.750761
											CHANNELS 3 Xrotation Yrotation Zrotation
											JOINT LeftHandThumb4
											{
												OFFSET 5.616882 -3.242905 3.242910
												CHANNELS 3 Xrotation Yrotation Zrotation
												End Site
												{
													OFFSET -1.254608 7.132141 0.375429
												}
											}
										}
									}
								}
								JOINT LeftHandPinky1
								{
									OFFSET 18.920792 -0.453171 -11.426712
									CHANNELS 3 Xrotation Yrotation Zrotation
									JOINT LeftHandPinky2
									{
										OFFSET 4.919586 0.000000 0.000000
										CHANNELS 3 Xrotation Yrotation Zrotation
										JOINT LeftHandPinky3
										{
											OFFSET 5.233047 0.000000 0.000000
											CHANNELS 3 Xrotation Yrotation Zrotation
											JOINT LeftHandPinky4
											{
												OFFSET 5.571716 0.000000 0.000000
												CHANNELS 3 Xrotation Yrotation Zrotation
												End Site
												{
													OFFSET -3.459808 4.342407 -0.466164
												}
											}
										}
									}
								}
								JOINT LeftHandRing1
								{
									OFFSET 22.726120 -0.094986 -6.500475
									CHANNELS 3 Xrotation Yrotation Zrotation
									JOINT LeftHandRing2
									{
										OFFSET 6.408615 0.000000 0.000000
										CHANNELS 3 Xrotation Yrotation Zrotation
										JOINT LeftHandRing3
										{
											OFFSET 6.150223 0.000000 0.000000
											CHANNELS 3 Xrotation Yrotation Zrotation
											JOINT LeftHandRing4
											{
												OFFSET 6.145386 0.000000 0.000000
												CHANNELS 3 Xrotation Yrotation Zrotation
												End Site
												{
													OFFSET -3.671402 4.923981 -0.202372
												}
											}
										}
									}
								}
								JOINT LeftHandMiddle1
								{
									OFFSET 23.373947 0.000000 0.000001
									CHANNELS 3 Xrotation Yrotation Zrotation
									JOINT LeftHandMiddle2
									{
										OFFSET 6.996567 0.000000 0.000000
										CHANNELS 3 Xrotation Yrotation Zrotation
										JOINT LeftHandMiddle3
										{
											OFFSET 7.015945 0.000000 0.000000
											CHANNELS 3 Xrotation Yrotation Zrotation
											JOINT LeftHandMiddle4
											{
												OFFSET 7.721573 0.000000 0.000000
												CHANNELS 3 Xrotation Yrotation Zrotation
												End Site
												{
													OFFSET -4.651108 6.158463 0.251582
												}
											}
										}
									}
								}
								JOINT LeftHandIndex1
								{
									OFFSET 21.310577 -0.490082 6.209344
									CHANNELS 3 Xrotation Yrotation Zrotation
									JOINT LeftHandIndex2
									{
										OFFSET 7.536453 0.000000 0.000000
										CHANNELS 3 Xrotation Yrotation Zrotation
										JOINT LeftHandIndex3
										{
											OFFSET 7.512344 0.000000 0.000000
											CHANNELS 3 Xrotation Yrotation Zrotation
											JOINT LeftHandIndex4
											{
												OFFSET 10.212402 0.000000 0.000001
												CHANNELS 3 Xrotation Yrotation Zrotation
												End Site
												{
													OFFSET -5.180801 8.690506 1.388433
												}
											}
										}
									}
								}
							}
						}
					}
				}
				JOINT RightShoulder
				{
					OFFSET -17.399500 24.608795 1.168800
					CHANNELS 3 Xrotation Yrotation Zrotation
					JOINT RightArm
					{
						OFFSET -18.980635 5.765305 1.818600
						CHANNELS 3 Xrotation Yrotation Zrotation
						JOINT RightForeArm
						{
							OFFSET -49.290169 0.000000 0.000000
							CHANNELS 3 Xrotation Yrotation Zrotation
							JOINT RightHand
							{
								OFFSET -31.562012 0.000000 0.000000
								CHANNELS 3 Xrotation Yrotation Zrotation
								JOINT RightHandThumb1
								{
									OFFSET -6.133995 -4.388519 7.076070
									CHANNELS 3 Xrotation Yrotation Zrotation
									JOINT RightHandThumb2
									{
										OFFSET -6.037666 -3.485840 3.485847
										CHANNELS 3 Xrotation Yrotation Zrotation
										JOINT RightHandThumb3
										{
											OFFSET -6.496506 -3.750763 3.750761
											CHANNELS 3 Xrotation Yrotation Zrotation
											JOINT RightHandThumb4
											{
												OFFSET -5.616882 -3.242905 3.242910
												CHANNELS 3 Xrotation Yrotation Zrotation
												End Site
												{
													OFFSET 1.254608 7.132141 0.375429
												}
											}
										}
									}
								}
								JOINT RightHandIndex1
								{
									OFFSET -21.310577 -0.490082 6.209344
									CHANNELS 3 Xrotation Yrotation Zrotation
									JOINT RightHandIndex2
									{
										OFFSET -7.536453 0.000000 0.000000
										CHANNELS 3 Xrotation Yrotation Zrotation
										JOINT RightHandIndex3
										{
											OFFSET -7.512344 0.000000 0.000000
											CHANNELS 3 Xrotation Yrotation Zrotation
											JOINT RightHandIndex4
											{
												OFFSET -10.212402 0.000000 0.000001
												CHANNELS 3 Xrotation Yrotation Zrotation
												End Site
												{
													OFFSET 5.180801 8.690506 1.388433
												}
											}
										}
									}
								}
								JOINT RightHandMiddle1
								{
									OFFSET -23.373947 0.000000 0.000001
									CHANNELS 3 Xrotation Yrotation Zrotation
									JOINT RightHandMiddle2
									{
										OFFSET -6.996567 0.000000 0.000000
										CHANNELS 3 Xrotation Yrotation Zrotation
										JOINT RightHandMiddle3
										{
											OFFSET -7.015945 0.000000 0.000000
											CHANNELS 3 Xrotation Yrotation Zrotation
											JOINT RightHandMiddle4
											{
												OFFSET -7.721573 0.000000 0.000000
												CHANNELS 3 Xrotation Yrotation Zrotation
												End Site
												{
													OFFSET 4.651108 6.158463 0.251582
												}
											}
										}
									}
								}
								JOINT RightHandRing1
								{
									OFFSET -22.726120 -0.094986 -6.500475
									CHANNELS 3 Xrotation Yrotation Zrotation
									JOINT RightHandRing2
									{
										OFFSET -6.408615 0.000000 0.000000
										CHANNELS 3 Xrotation Yrotation Zrotation
										JOINT RightHandRing3
										{
											OFFSET -6.150223 0.000000 0.000000
											CHANNELS 3 Xrotation Yrotation Zrotation
											JOINT RightHandRing4
											{
												OFFSET -6.145386 0.000000 0.000000
												CHANNELS 3 Xrotation Yrotation Zrotation
												End Site
												{
													OFFSET 3.671402 4.923981 -0.202372
												}
											}
										}
									}
								}
								JOINT RightHandPinky1
								{
									OFFSET -18.920792 -0.453171 -11.426712
									CHANNELS 3 Xrotation Yrotation Zrotation
									JOINT RightHandPinky2
									{
										OFFSET -4.919586 0.000000 0.000000
										CHANNELS 3 Xrotation Yrotation Zrotation
										JOINT RightHandPinky3
										{
											OFFSET -5.233047 0.000000 0.000000
											CHANNELS 3 Xrotation Yrotation Zrotation
											JOINT RightHandPinky4
											{
												OFFSET -5.571716 0.000000 0.000000
												CHANNELS 3 Xrotation Yrotation Zrotation
												End Site
												{
													OFFSET 3.459808 4.342407 -0.466164
												}
											}
										}
									}
								}
							}
						}
					}
				}
			}
		}
	}
	JOINT LeftUpLeg
	{
		OFFSET 19.899099 -7.885101 -3.429500
		CHANNELS 3 Xrotation Yrotation Zrotation
		JOINT LeftLeg
		{
			OFFSET 1.745560 -36.997807 10.304700
			CHANNELS 3 Xrotation Yrotation Zrotation
			JOINT LeftFoot
			{
				OFFSET -1.745558 -29.803308 -13.615400
				CHANNELS 3 Xrotation Yrotation Zrotation
				JOINT LeftToeBase
				{
					OFFSET 1.181900 -18.539904 15.226099
					CHANNELS 3 Xrotation Yrotation Zrotation
					JOINT LeftToe_End
					{
						OFFSET -0.863701 1.402801 16.534700
						CHANNELS 3 Xrotation Yrotation Zrotation
						End Site
						{
							OFFSET 0.000000 16.616566 0.000000
						}
					}
				}
			}
		}
	}
	JOINT RightUpLeg
	{
		OFFSET -19.899099 -7.885101 -3.429500
		CHANNELS 3 Xrotation Yrotation Zrotation
		JOINT RightLeg
		{
			OFFSET -1.745560 -36.997807 10.304700
			CHANNELS 3 Xrotation Yrotation Zrotation
			JOINT RightFoot
			{
				OFFSET 1.745558 -29.803308 -13.615400
				CHANNELS 3 Xrotation Yrotation Zrotation
				JOINT RightToeBase
				{
					OFFSET -1.181900 -18.539904 15.226099
					CHANNELS 3 Xrotation Yrotation Zrotation
					JOINT RightToe_End
					{
						OFFSET 0.863701 1.402801 16.534700
						CHANNELS 3 Xrotation Yrotation Zrotation
						End Site
						{
							OFFSET 0.000000 16.616566 0.000000
						}
					}
				}
			}
		}
	}
}
MOTION
Frames: 6
Frame Time: 0.033333
7.880543 70.063675 -5.778538 39.806923 -29.552603 21.589067 42.907183 -1.854592 -1.619344 6.722280 0.072984 -0.810216 6.762771 0.129945 -0.826175 2.167778 -1.422123 -1.197895 -0.709874 -15.739855 6.907288 0.000000 0.000003 -0.000002 -1.591939 -20.887594 -23.469425 31.060278 5.429049 -38.817802 -0.000033 -123.220806 -0.000063 19.494927 -6.424758 -22.905960 -7.672577 7.592970 18.070106 9.210154 18.696767 8.898893 -14.088545 -10.965280 10.237479 0.000001 0.000001 0.000000 -2.494253 -7.480276 -14.294206 0.153562 1.333898 -13.133592 0.127987 1.219142 -11.985912 0.000001 0.000004 0.000002 -2.646394 -4.793973 -19.001424 0.400587 2.130955 -21.290839 0.245575 1.679997 -16.631215 -0.000001 0.000002 0.000003 -0.813864 -2.737810 -9.288431 0.899537 3.121149 -32.147563 0.654929 2.693508 -27.327964 0.000002 -0.000001 0.000004 -0.417217 -4.284976 -4.385297 1.346428 3.737902 -39.607495 0.768807 2.903056 -29.660585 0.000003 0.000003 0.000001 -1.460784 24.201356 20.279060 25.269811 19.406461 37.829460 0.000061 104.956129 -0.000045 19.113347 23.260173 8.128995 -11.432615 10.486890 -26.527294 9.822087 -21.124525 -9.263911 -12.237431 5.688012 -12.415838 0.000000 -0.000003 -0.000001 0.487048 3.924818 -3.924346 0.643938 -2.364800 30.460595 0.399958 -1.889981 23.895900 0.000003 0.000000 -0.000001 -0.434181 2.384292 5.836401 0.531325 -2.162132 27.610218 0.403796 -1.898580 24.011370 -0.000001 0.000001 -0.000008 -1.628465 1.918918 18.890068 0.391157 -1.869994 23.627462 0.240566 -1.478860 18.476522 0.000004 0.000003 -0.000005 -1.786142 5.388252 13.020838 0.090466 -0.914409 11.299049 0.068908 -0.798989 9.857206 -0.000003 0.000002 0.000001 -70.771531 9.808274 18.152355 64.871969 -4.871647 -10.984709 -30.796565 30.933746 5.609278 -5.867764 0.000002 0.000005 -0.000000 -0.000001 -0.000000 -86.210989 9.828441 1.267148 56.011724 -3.899519 -2.194651 -4.802175 5.869430 10.110107 -7.273561 0.000007 -0.000001 -0.000000 0.000002 0.000000 
7.832890 70.246635 -5.786781 39.443212 -29.612166 21.496598 42.827308 -1.874036 -1.657120 6.729887 0.065482 -0.819597 6.769512 0.126146 -0.836613 2.187792 -1.441530 -1.220780 -0.621236 -15.928015 6.745131 0.000001 -0.000000 -0.000002 -1.590216 -20.887180 -23.465250 30.809897 5.214848 -38.597139 0.000011 -123.059081 -0.000022 21.541163 -6.627045 -22.465652 -6.911305 7.491315 17.006920 9.183398 18.639629 8.896139 -13.903233 -10.487614 10.315241 -0.000002 0.000001 -0.000001 -2.369642 -6.660758 -14.627299 0.166148 1.386680 -13.663391 0.140233 1.275468 -12.548576 -0.000003 -0.000003 0.000001 -2.620365 -4.158941 -20.096696 0.432698 2.211504 -22.137920 0.272578 1.767890 -17.529177 0.000000 0.000002 0.000005 -0.901628 -2.103705 -11.170760 0.937721 3.181004 -32.842220 0.665662 2.714150 -27.555394 -0.000001 0.000000 0.000006 -0.316543 -3.975738 -3.692931 1.335639 3.724844 -39.441662 0.842270 3.028268 -31.080253 0.000002 0.000001 0.000001 -1.434442 24.179112 20.171709 25.010503 19.616763 38.081822 0.000027 104.666106 0.000000 20.951117 23.508586 6.845448 -11.600815 10.596096 -26.903541 9.792492 -21.029285 -9.185226 -12.182832 5.696076 -12.432897 -0.000001 -0.000001 -0.000001 0.521008 4.078603 -4.135116 0.642145 -2.361749 30.416991 0.399599 -1.889119 23.884294 0.000002 -0.000003 -0.000002 -0.466504 2.515625 6.051762 0.524406 -2.148813 27.425790 0.394927 -1.878568 23.742436 0.000001 0.000002 -0.000001 -1.754038 2.081619 19.517207 0.391473 -1.870712 23.637126 0.239301 -1.475064 18.427343 0.000002 0.000001 -0.000003 -1.913241 5.684108 13.407509 0.089744 -0.910785 11.253742 0.067585 -0.791406 9.762788 -0.000000 0.000003 -0.000001 -70.103436 9.562710 18.055246 64.519456 -4.604884 -11.172583 -30.536522 31.000822 5.319953 -5.855661 -0.000005 0.000004 -0.000000 0.000000 0.000000 -85.720725 9.989100 1.297894 55.851253 -3.868990 -2.200296 -4.795438 5.693456 10.091862 -7.273558 0.000004 0.000002 -0.000001 -0.000001 0.000000 
7.788198 70.429131 -5.793079 39.062538 -29.674392 21.389613 42.751093 -1.909503 -1.694955 6.737198 0.059565 -0.829833 6.773631 0.120518 -0.848102 2.205118 -1.456560 -1.246770 -0.645100 -16.090643 6.563673 0.000001 0.000002 -0.000001 -1.588608 -20.886162 -23.461640 30.659104 4.999498 -38.445533 -0.000002 -122.826650 -0.000031 23.789117 -7.119312 -21.760004 -6.109440 7.274177 15.915280 9.149242 18.562692 8.875959 -13.704029 -9.999475 10.399987 -0.000000 0.000001 -0.000001 -2.226666 -5.796570 -14.981684 0.180199 1.443244 -14.232606 0.154000 1.335788 -13.152580 -0.000000 -0.000000 0.000001 -2.570021 -3.492810 -21.256413 0.468123 2.296606 -23.038833 0.302809 1.860821 -18.483827 -0.000001 -0.000000 0.000007 -0.956792 -1.436080 -13.154075 0.979073 3.244072 -33.580243 0.677108 2.735937 -27.795988 -0.000001 -0.000001 0.000004 -0.244825 -3.597195 -3.218472 1.331716 3.720095 -39.381563 0.923576 3.159040 -32.586771 -0.000000 -0.000000 -0.000001 -1.407023 24.154744 20.059856 24.791305 19.805937 38.362242 -0.000032 104.424816 0.000056 23.125105 23.687958 5.478922 -11.718060 10.666563 -27.162445 9.770353 -20.960488 -9.128720 -12.143118 5.699825 -12.446463 0.000001 0.000000 0.000001 0.552963 4.222187 -4.324751 0.640571 -2.359102 30.379373 0.399122 -1.888074 23.870249 -0.000001 -0.000002 0.000003 -0.492846 2.638666 6.202626 0.517279 -2.135066 27.235639 0.386702 -1.859813 23.490904 -0.000000 0.000002 -0.000001 -1.862753 2.243428 19.964897 0.389395 -1.865985 23.573653 0.236542 -1.466805 18.320442 0.000000 0.000000 -0.000007 -2.020734 5.961721 13.678439 0.088918 -0.906715 11.202458 0.066392 -0.784373 9.675099 -0.000003 0.000000 0.000001 -69.456897 9.383030 18.000520 64.202009 -4.233573 -11.284233 -30.194685 30.845377 4.909365 -5.836262 -0.000009 -0.000004 -0.000000 0.000000 -0.000000 -85.213344 10.090244 1.310445 55.693530 -3.794598 -2.210529 -4.791522 5.518366 10.041004 -7.273560 0.000005 -0.000006 -0.000001 0.000003 0.000000 
7.755762 70.614052 -5.796406 38.622633 -29.749838 21.232212 42.673072 -1.959314 -1.733526 6.744737 0.051330 -0.840395 6.776387 0.113076 -0.860098 2.220240 -1.467641 -1.275697 -0.784995 -16.230958 6.363368 -0.000001 -0.000002 -0.000001 -1.587507 -20.884540 -23.460081 30.611627 4.749679 -38.355863 -0.000021 -122.498022 -0.000049 26.239387 -7.865686 -20.716961 -5.284655 6.960514 14.818553 9.108204 18.469685 8.838395 -13.496271 -9.509804 10.488425 -0.000001 0.000002 0.000001 -2.066634 -4.908078 -15.346687 0.195438 1.502019 -14.825356 0.169005 1.398394 -13.781281 -0.000003 -0.000003 0.000001 -2.493821 -2.813490 -22.451908 0.506090 2.383858 -23.969027 0.335635 1.956214 -19.469470 -0.000002 -0.000003 0.000003 -0.972734 -0.748529 -15.192764 1.022590 3.308594 -34.341901 0.688822 2.758025 -28.040455 -0.000003 -0.000003 0.000004 -0.203759 -3.160152 -3.007387 1.334249 3.723184 -39.420471 1.011218 3.291889 -34.144122 -0.000000 0.000001 0.000001 -1.378701 24.128376 19.944181 24.607607 19.953388 38.666462 -0.000096 104.225934 0.000125 25.614871 23.813502 4.064792 -11.755500 10.678218 -27.240007 9.766449 -20.934634 -9.108505 -12.128586 5.696014 -12.451700 -0.000002 -0.000003 -0.000000 0.578827 4.343836 -4.467821 0.639542 -2.357331 30.354064 0.398608 -1.886887 23.854427 -0.000004 -0.000002 0.000003 -0.508822 2.743018 6.259326 0.510570 -2.121970 27.054618 0.380104 -1.844489 23.285879 0.000003 -0.000001 -0.000004 -1.937625 2.397542 20.133605 0.383907 -1.853289 23.403624 0.231759 -1.452269 18.132368 -0.000002 -0.000004 -0.000004 -2.091207 6.199057 13.775036 0.088055 -0.902253 11.146744 0.065410 -0.778588 9.603127 -0.000002 0.000001 -0.000001 -68.795742 9.261347 17.951113 63.919895 -3.831733 -11.329231 -29.847387 30.622337 4.478249 -5.816822 0.000006 -0.000003 -0.000000 0.000000 0.000000 -84.644868 10.135030 1.300974 55.536193 -3.687502 -2.224093 -4.794467 5.344644 9.973812 -7.273567 0.000008 0.000005 0.000000 0.000001 -0.000000 
7.734119 70.804497 -5.797295 38.127823 -29.830168 21.027104 42.587647 -2.020802 -1.773163 6.749456 0.039301 -0.851065 6.778474 0.099931 -0.871444 2.233618 -1.473743 -1.307394 -1.044782 -16.351285 6.143624 -0.000001 0.000000 0.000003 -1.587215 -20.882363 -23.461922 30.691236 4.475033 -38.322747 -0.000011 -122.060904 -0.000033 28.915278 -8.878390 -19.251824 -4.451754 6.571803 13.734499 9.062699 18.363324 8.785809 -13.285027 -9.028398 10.579715 -0.000000 -0.000000 -0.000001 -1.892060 -4.015507 -15.711489 0.211468 1.561356 -15.425735 0.184904 1.461651 -14.417998 -0.000000 0.000003 -0.000000 -2.391394 -2.135707 -23.654026 0.545717 2.470963 -24.904196 0.370294 2.051572 -20.460568 0.000001 0.000000 0.000002 -0.947614 -0.060533 -17.242044 1.067191 3.372828 -35.107213 0.700363 2.779600 -28.279539 -0.000002 -0.000000 0.000008 -0.382678 -2.455065 -5.306252 1.422878 3.828235 -40.766524 1.103246 3.423448 -35.715165 -0.000001 0.000001 0.000001 -1.349558 24.100218 19.825044 24.475257 20.066365 38.998321 0.000095 104.073505 -0.000081 28.464335 23.871200 2.594003 -11.710119 10.630837 -27.128195 9.770588 -20.960415 -9.129483 -12.141359 5.684413 -12.453154 0.000001 0.000004 0.000003 0.594346 4.431974 -4.539216 0.639335 -2.356936 30.348542 0.398205 -1.885955 23.841979 -0.000000 0.000002 0.000001 -0.513370 2.817393 6.228733 0.505596 -2.112215 26.919963 0.376307 -1.835708 23.168415 -0.000000 -0.000000 -0.000004 -1.969125 2.528969 20.013433 0.375455 -1.833640 23.140720 0.225384 -1.432686 17.879613 -0.000001 -0.000001 -0.000002 -2.117268 6.372182 13.700405 0.087248 -0.898248 11.096599 0.064796 -0.774999 9.558504 0.000003 0.000001 0.000004 -68.115878 9.152823 17.901024 63.657582 -3.397190 -11.328927 -29.478045 30.350878 4.020359 -5.797588 0.000010 0.000001 -0.000000 0.000000 0.000000 -84.016675 10.133984 1.268094 55.375431 -3.558901 -2.238278 -4.804465 5.173152 9.895760 -7.273568 -0.000007 0.000000 -0.000000 0.000001 0.000000 
7.710609 71.001190 -5.800339 37.624439 -29.898415 20.812911 42.489357 -2.090851 -1.813700 6.752088 0.024608 -0.861810 6.779561 0.084157 -0.882760 2.245779 -1.476287 -1.341675 -1.428365 -16.453497 5.903757 -0.000001 0.000002 -0.000005 -1.588478 -20.871858 -23.478063 31.043165 4.179073 -38.200961 0.000008 -121.622815 -0.000025 31.971641 -9.779213 -17.198032 -3.630103 6.128244 12.684699 9.014354 18.246628 8.719887 -13.075227 -8.564542 10.671653 0.000001 0.000005 0.000000 -1.706717 -3.138730 -16.065025 0.227900 1.619732 -16.017837 0.201271 1.523849 -15.046055 -0.000003 0.000001 -0.000007 -2.264490 -1.473572 -24.833565 0.585884 2.555599 -25.819930 0.405830 2.144352 -21.431395 -0.000000 0.000000 0.000003 -0.882703 0.611224 -19.256740 1.111690 3.435136 -35.856420 0.711275 2.799748 -28.504015 -0.000004 -0.000001 0.000004 -0.512184 -1.752936 -7.564247 1.512448 3.929478 -42.090201 1.197517 3.550663 -37.265020 0.000002 0.000000 -0.000004 -1.319401 24.070606 19.701285 24.459787 20.197706 39.347606 0.000124 103.995258 -0.000103 31.686801 23.785598 1.018693 -11.653131 10.576043 -26.983163 9.779510 -20.998378 -9.161831 -12.161206 5.669916 -12.451580 -0.000003 0.000001 -0.000001 0.595509 4.475483 -4.515114 0.640332 -2.358685 30.373493 0.398616 -1.886927 23.854798 -0.000001 0.000000 0.000002 -0.514255 2.851745 6.202695 0.506719 -2.114423 26.950378 0.378208 -1.840087 23.226833 0.000003 0.000001 -0.000002 -1.975023 2.605763 19.846626 0.369889 -1.820618 22.966735 0.221567 -1.420751 17.725692 -0.000000 0.000001 -0.000003 -2.121141 6.456433 13.615958 0.087226 -0.898114 11.094946 0.064968 -0.775957 9.570363 -0.000001 0.000000 -0.000003 -67.427211 9.041050 17.832929 63.393089 -2.914113 -11.305514 -29.085736 30.053830 3.520395 -5.778306 -0.000001 -0.000002 0.000000 0.000001 0.000000 -83.374555 10.108150 1.223563 55.208105 -3.421035 -2.254320 -4.816024 5.001636 9.803978 -7.273578 0.000001 0.000002 -0.000000 0.000003 0.000000 
